<?xml version="1.0" encoding="UTF-8" ?>
<!DOCTYPE svg PUBLIC "-//W3C//DTD SVG 1.1//EN" "http://www.w3.org/Graphics/SVG/1.1/DTD/svg11.dtd">
<svg width="859pt" height="291pt" viewBox="0 0 859 291" version="1.1" xmlns="http://www.w3.org/2000/svg">
<g id="#45657356">
<path fill="#456573" opacity="0.34" d=" M 644.44 61.19 C 677.11 35.88 727.24 36.41 759.14 62.80 C 762.97 66.13 767.35 69.18 769.74 73.81 C 758.78 61.85 744.95 52.28 729.32 47.62 C 707.08 41.03 682.37 42.17 661.19 51.87 C 651.02 56.42 642.45 63.60 634.27 71.01 C 636.82 66.95 641.01 64.42 644.44 61.19 Z" />
<path fill="#456573" opacity="0.34" d=" M 293.10 46.31 C 301.30 45.57 309.56 45.69 317.78 45.57 C 318.99 47.69 317.14 49.37 315.88 50.91 C 313.42 53.69 311.16 56.70 308.22 59.02 C 310.93 55.26 314.31 52.05 317.04 48.31 C 316.98 48.02 316.86 47.45 316.80 47.16 C 313.49 45.49 309.63 46.50 306.09 46.54 C 268.55 47.70 231.09 51.31 194.01 57.28 C 158.73 63.29 123.67 71.68 90.40 85.07 C 76.23 90.55 62.90 97.89 49.76 105.45 C 59.34 98.25 70.33 93.20 81.15 88.14 C 114.61 73.41 150.29 64.35 186.18 57.81 C 221.53 51.72 257.29 47.96 293.10 46.31 Z" />
<path fill="#456573" opacity="0.34" d=" M 420.99 48.95 C 420.68 47.19 422.59 46.54 423.99 46.77 C 446.32 46.76 468.65 46.79 490.98 46.76 C 498.37 46.47 505.69 47.63 513.08 47.69 C 524.19 49.04 535.75 51.29 545.24 57.53 C 539.01 54.96 532.80 52.23 526.20 50.74 C 514.39 47.77 502.10 47.82 490.01 47.69 C 467.22 47.69 444.44 47.75 421.66 47.69 C 421.36 56.46 422.25 65.20 422.06 73.97 C 422.05 118.32 422.06 162.67 422.06 207.02 C 422.34 218.83 421.55 230.61 421.59 242.41 C 449.74 242.38 477.89 242.39 506.04 242.41 C 519.90 242.18 533.75 238.80 546.04 232.35 L 546.63 232.80 C 534.27 239.70 520.11 242.85 506.04 243.32 C 478.65 243.31 451.26 243.25 423.87 243.35 C 422.44 243.66 420.74 242.81 421.00 241.14 C 420.99 177.08 421.01 113.02 420.99 48.95 Z" />
<path fill="#456573" opacity="0.34" d=" M 351.34 57.96 C 351.46 54.52 350.76 50.89 352.18 47.63 C 352.42 57.51 352.26 67.40 352.25 77.28 C 362.61 77.52 372.96 77.20 383.32 77.46 C 376.68 79.10 369.77 77.87 363.01 78.24 C 359.24 77.94 355.07 79.07 351.58 77.46 C 350.98 70.98 351.54 64.46 351.34 57.96 Z" />
<path fill="#456573" opacity="0.34" d=" M 545.98 57.96 C 552.30 60.56 557.90 64.95 562.19 70.25 C 557.14 65.70 551.65 61.70 545.98 57.96 Z" />
<path fill="#456573" opacity="0.34" d=" M 291.81 77.50 C 297.06 71.50 302.10 65.30 307.70 59.61 C 304.74 64.46 300.46 68.29 296.84 72.61 C 294.52 75.14 292.61 78.08 289.93 80.25 C 288.30 80.61 286.63 80.53 284.99 80.53 C 273.78 80.23 262.63 82.00 251.42 81.69 C 261.86 80.32 272.42 79.91 282.93 79.68 C 285.95 79.45 289.78 80.36 291.81 77.50 Z" />
<path fill="#456573" opacity="0.34" d=" M 562.59 70.65 C 565.97 73.14 568.50 76.58 570.52 80.22 C 567.83 77.06 565.23 73.84 562.59 70.65 Z" />
<path fill="#456573" opacity="0.34" d=" M 654.39 96.37 C 662.10 83.78 675.25 74.38 689.93 72.07 C 704.24 69.99 719.82 71.65 731.91 80.18 C 748.99 91.92 757.30 112.98 758.83 133.05 C 756.48 124.69 755.84 115.87 752.43 107.82 C 748.45 99.03 743.51 90.34 735.92 84.16 C 728.26 77.60 718.59 73.53 708.56 72.56 C 697.42 71.60 685.70 72.32 675.63 77.59 C 667.73 81.96 660.53 87.94 655.77 95.69 C 652.33 100.40 650.29 105.89 647.84 111.13 C 648.76 105.74 651.41 100.88 654.39 96.37 Z" />
<path fill="#456573" opacity="0.34" d=" M 624.06 83.86 C 627.07 79.39 629.96 74.66 634.12 71.16 C 630.04 76.85 625.52 82.25 622.14 88.42 C 618.91 93.74 616.74 99.58 614.14 105.21 C 615.97 97.51 619.91 90.53 624.06 83.86 Z" />
<path fill="#456573" opacity="0.34" d=" M 769.80 73.88 C 775.65 79.48 779.94 86.70 783.06 94.13 C 778.77 87.29 774.74 80.29 769.80 73.88 Z" />
<path fill="#456573" opacity="0.34" d=" M 455.63 75.55 C 470.32 75.68 485.03 75.07 499.69 76.18 C 511.74 77.39 524.14 80.35 533.75 88.12 C 544.40 96.51 549.96 109.82 551.79 122.97 C 553.95 134.21 553.37 145.72 553.16 157.09 C 552.16 166.61 550.87 176.29 546.95 185.11 C 543.12 193.81 536.51 201.26 528.37 206.14 C 515.58 213.37 500.45 215.07 485.99 214.55 C 475.87 214.54 465.74 214.58 455.62 214.53 C 455.59 168.20 455.59 121.87 455.63 75.55 M 456.03 76.48 C 456.10 122.20 456.07 167.93 456.04 213.65 C 469.36 213.63 482.68 213.64 495.99 213.66 C 504.83 213.36 513.64 211.57 521.89 208.40 C 531.07 204.89 538.70 198.02 543.84 189.73 C 547.92 182.40 550.31 174.19 551.27 165.88 C 553.32 152.81 553.34 139.44 551.58 126.34 C 550.12 114.11 546.21 101.64 537.59 92.50 C 527.57 82.11 512.90 78.27 498.96 77.00 C 484.66 76.12 470.34 76.59 456.03 76.48 Z" />
<path fill="#456573" opacity="0.34" d=" M 570.68 80.44 C 573.86 83.48 575.51 87.62 577.46 91.47 C 584.22 105.33 587.58 120.70 588.20 136.06 C 588.04 146.74 588.85 157.53 586.85 168.10 C 583.58 190.25 573.81 212.55 555.75 226.53 C 552.88 228.75 550.00 231.18 546.43 232.13 C 558.24 224.99 568.40 215.01 574.88 202.75 C 586.55 181.48 588.97 156.42 587.40 132.58 C 586.01 114.21 580.73 95.99 570.68 80.44 Z" />
<path fill="#456573" opacity="0.34" d=" M 183.88 89.65 C 189.07 88.70 194.27 87.73 199.55 87.49 C 195.52 88.87 191.24 89.15 187.07 89.91 C 158.62 94.95 130.36 101.72 103.36 112.12 C 91.02 116.96 78.95 122.59 67.76 129.75 C 59.44 135.42 51.32 142.05 46.84 151.32 C 48.81 144.35 54.39 139.31 59.76 134.84 C 71.72 125.38 85.57 118.65 99.62 112.89 C 126.71 101.99 155.18 94.86 183.88 89.65 Z" />
<path fill="#456573" opacity="0.34" d=" M 783.46 94.81 C 786.68 99.38 787.98 104.93 789.76 110.16 C 791.53 117.29 793.92 124.47 793.56 131.91 C 791.90 123.23 790.49 114.45 787.53 106.09 C 786.18 102.32 784.80 98.57 783.46 94.81 Z" />
<path fill="#456573" opacity="0.34" d=" M 280.94 97.76 C 283.34 97.79 287.56 96.67 287.44 100.39 L 287.12 99.77 L 286.48 98.50 C 280.64 98.30 274.79 98.40 268.96 98.61 C 258.01 99.36 247.03 99.36 236.11 100.41 C 198.18 103.49 160.25 109.63 124.13 121.88 C 106.45 127.96 89.03 135.54 73.94 146.72 C 65.72 152.98 57.89 160.85 55.42 171.23 C 49.59 166.83 43.73 159.53 46.69 151.81 C 46.98 154.45 46.85 157.12 47.24 159.75 C 48.43 164.10 51.89 167.26 55.03 170.28 C 56.53 162.87 61.54 156.87 66.87 151.79 C 76.07 143.19 87.22 137.06 98.41 131.46 C 134.54 114.98 173.81 106.64 213.06 101.89 C 235.59 99.08 258.27 98.15 280.94 97.76 Z" />
<path fill="#456573" opacity="0.34" d=" M 278.68 109.44 C 281.14 106.27 283.84 103.31 286.59 100.40 C 284.49 103.84 281.70 106.80 278.68 109.44 Z" />
<path fill="#456573" opacity="0.34" d=" M 351.34 110.98 C 351.43 107.63 350.79 104.09 352.28 100.95 C 352.23 148.20 352.44 195.45 352.17 242.70 C 350.80 239.30 351.44 235.57 351.34 232.01 C 351.35 191.67 351.36 151.32 351.34 110.98 Z" />
<path fill="#456573" opacity="0.34" d=" M 32.44 118.97 C 37.16 113.76 42.86 109.43 48.98 106.01 C 43.49 110.35 37.88 114.55 32.44 118.97 Z" />
<path fill="#456573" opacity="0.34" d=" M 262.26 127.95 C 267.70 121.94 272.74 115.57 278.40 109.75 C 272.91 117.37 266.40 124.21 260.04 131.10 C 254.36 131.07 248.66 130.89 243.03 131.70 C 211.45 133.11 179.86 137.10 149.33 145.49 C 148.08 145.77 146.81 145.97 145.54 146.09 C 178.75 136.20 213.45 132.31 247.96 130.74 C 252.70 130.15 258.87 132.34 262.26 127.95 Z" />
<path fill="#456573" opacity="0.34" d=" M 645.08 117.27 L 646.13 117.55 C 645.22 123.34 643.75 129.05 643.31 134.92 C 642.01 150.18 643.52 165.82 648.55 180.33 C 652.30 190.54 658.49 199.75 666.27 207.32 C 658.21 201.80 653.32 192.81 649.20 184.18 C 642.82 168.92 641.11 151.96 642.40 135.57 C 642.56 129.37 644.53 123.42 645.08 117.27 Z" />
<path fill="#456573" opacity="0.34" d=" M 793.68 133.07 C 795.20 136.51 794.46 140.35 794.60 143.99 C 795.29 166.92 789.18 190.25 776.22 209.28 C 773.06 213.57 770.11 218.22 765.64 221.28 C 771.31 214.80 776.71 208.02 780.70 200.36 C 788.48 186.16 792.47 170.13 793.63 154.05 C 793.79 147.06 793.66 140.06 793.68 133.07 Z" />
<path fill="#456573" opacity="0.34" d=" M 109.78 160.02 C 121.08 154.32 132.91 149.63 145.11 146.21 L 145.37 146.74 C 134.98 149.67 124.85 153.50 115.11 158.14 C 107.89 161.51 100.77 165.24 94.61 170.36 C 89.30 174.71 83.53 179.82 82.56 187.02 C 81.70 190.50 83.61 193.77 84.55 197.02 C 83.11 194.56 81.41 191.99 81.50 189.02 C 81.56 183.70 84.55 178.93 88.17 175.25 C 94.41 168.96 101.87 163.97 109.78 160.02 Z" />
<path fill="#456573" opacity="0.34" d=" M 156.04 159.98 C 189.48 151.52 223.94 147.13 258.41 146.85 C 258.59 147.11 258.95 147.61 259.14 147.87 C 258.41 150.54 256.06 152.37 254.35 154.44 C 250.80 158.03 248.02 162.34 244.12 165.57 C 247.86 160.57 252.15 156.02 256.27 151.33 C 256.90 150.35 258.19 149.48 257.80 148.17 C 255.05 146.90 251.89 147.54 248.96 147.53 C 231.94 148.34 214.95 149.77 198.08 152.18 C 172.92 156.09 147.68 161.45 124.41 172.06 C 114.44 176.91 104.40 182.48 97.24 191.16 C 94.32 194.57 92.69 198.80 91.09 202.94 C 90.91 202.80 90.55 202.52 90.37 202.38 C 93.86 191.68 102.44 183.58 111.94 178.05 C 125.54 169.65 140.82 164.56 156.04 159.98 Z" />
<path fill="#456573" opacity="0.34" d=" M 20.71 150.30 C 28.77 162.66 42.54 169.19 55.24 175.69 C 56.60 180.49 58.65 185.20 62.31 188.70 C 70.30 197.17 80.69 202.77 91.13 207.63 C 92.59 213.01 95.77 217.66 99.48 221.74 C 94.91 218.66 92.01 213.51 90.72 208.23 C 81.50 203.98 72.30 199.23 64.89 192.16 C 59.80 188.10 56.15 182.41 54.56 176.10 C 44.92 171.18 35.12 166.22 27.08 158.84 C 24.50 156.37 22.19 153.57 20.71 150.30 Z" />
<path fill="#456573" opacity="0.34" d=" M 753.09 180.82 C 755.97 173.39 756.54 165.36 758.78 157.75 C 757.89 169.19 754.91 180.61 749.25 190.65 C 741.64 205.75 726.38 216.62 709.59 218.72 C 694.72 220.61 678.19 217.99 666.75 207.68 C 676.11 213.64 686.67 218.49 698.02 218.24 C 711.90 219.17 726.21 214.90 736.69 205.62 C 744.38 199.09 749.33 190.04 753.09 180.82 Z" />
<path fill="#456573" opacity="0.34" d=" M 232.11 178.18 C 236.82 174.94 239.67 169.51 244.00 165.71 C 240.76 170.46 236.85 174.73 232.98 178.97 C 208.76 180.73 184.53 183.72 161.01 189.96 C 147.51 193.53 133.73 198.04 122.77 207.03 C 124.82 204.34 127.60 202.33 130.54 200.71 C 142.16 194.17 155.11 190.52 168.00 187.46 C 189.05 182.44 210.59 179.93 232.11 178.18 Z" />
<path fill="#456573" opacity="0.34" d=" M 611.30 176.51 C 614.58 186.15 617.93 195.88 623.44 204.53 C 633.15 220.77 648.20 233.86 665.89 240.68 C 681.69 247.06 699.25 248.19 716.02 245.92 C 727.94 244.33 739.23 239.85 749.70 234.07 C 745.08 238.14 739.17 240.16 733.52 242.35 C 718.96 247.71 703.12 248.70 687.79 247.07 C 671.41 245.16 655.76 238.42 642.82 228.25 C 627.22 214.95 615.54 196.64 611.30 176.51 Z" />
<path fill="#456573" opacity="0.34" d=" M 84.71 197.29 C 86.61 196.62 89.30 199.32 88.71 201.23 C 87.07 200.27 85.57 199.01 84.71 197.29 Z" />
<path fill="#456573" opacity="0.34" d=" M 755.23 230.46 C 758.56 227.35 761.98 224.32 765.51 221.42 C 762.91 225.23 759.20 228.18 755.23 230.46 Z" />
<path fill="#456573" opacity="0.34" d=" M 352.17 242.70 C 362.57 242.08 373.02 242.44 383.43 242.49 C 379.47 243.99 375.16 243.10 371.04 243.30 C 364.56 243.09 358.02 243.85 351.59 242.75 L 352.17 242.70 Z" />
</g>
<g id="#0170a9ff">
<path fill="#0170a9" opacity="1.00" d=" M 661.19 51.87 C 682.37 42.17 707.08 41.03 729.32 47.62 C 744.95 52.28 758.78 61.85 769.74 73.81 L 769.80 73.88 C 774.74 80.29 778.77 87.29 783.06 94.13 L 783.46 94.81 C 784.80 98.57 786.18 102.32 787.53 106.09 C 790.49 114.45 791.90 123.23 793.56 131.91 C 793.59 132.20 793.65 132.78 793.68 133.07 C 793.66 140.06 793.79 147.06 793.63 154.05 C 792.47 170.13 788.48 186.16 780.70 200.36 C 776.71 208.02 771.31 214.80 765.64 221.28 C 765.61 221.31 765.54 221.38 765.51 221.42 C 761.98 224.32 758.56 227.35 755.23 230.46 C 753.51 231.84 751.64 233.02 749.70 234.07 C 739.23 239.85 727.94 244.33 716.02 245.92 C 699.25 248.19 681.69 247.06 665.89 240.68 C 648.20 233.86 633.15 220.77 623.44 204.53 C 617.93 195.88 614.58 186.15 611.30 176.51 C 606.10 156.86 606.01 135.90 610.77 116.15 C 611.61 112.43 612.57 108.70 614.14 105.21 C 616.74 99.58 618.91 93.74 622.14 88.42 C 625.52 82.25 630.04 76.85 634.12 71.16 C 634.16 71.12 634.23 71.04 634.27 71.01 C 642.45 63.60 651.02 56.42 661.19 51.87 M 654.39 96.37 C 651.41 100.88 648.76 105.74 647.84 111.13 C 647.00 113.18 646.50 115.37 646.13 117.55 L 645.08 117.27 C 644.53 123.42 642.56 129.37 642.40 135.57 C 641.11 151.96 642.82 168.92 649.20 184.18 C 653.32 192.81 658.21 201.80 666.27 207.32 C 666.39 207.41 666.63 207.59 666.75 207.68 C 678.19 217.99 694.72 220.61 709.59 218.72 C 726.38 216.62 741.64 205.75 749.25 190.65 C 754.91 180.61 757.89 169.19 758.78 157.75 C 758.82 157.62 758.89 157.34 758.93 157.21 C 758.50 154.12 758.98 151.03 759.21 147.95 C 759.68 142.97 758.43 138.03 758.83 133.05 C 757.30 112.98 748.99 91.92 731.91 80.18 C 719.82 71.65 704.24 69.99 689.93 72.07 C 675.25 74.38 662.10 83.78 654.39 96.37 Z" />
<path fill="#0170a9" opacity="1.00" d=" M 194.01 57.28 C 231.09 51.31 268.55 47.70 306.09 46.54 C 309.63 46.50 313.49 45.49 316.80 47.16 C 316.86 47.45 316.98 48.02 317.04 48.31 C 314.31 52.05 310.93 55.26 308.22 59.02 L 307.70 59.61 C 302.10 65.30 297.06 71.50 291.81 77.50 C 289.78 80.36 285.95 79.45 282.93 79.68 C 272.42 79.91 261.86 80.32 251.42 81.69 C 240.91 82.70 230.30 83.16 219.88 85.09 C 213.03 85.17 206.34 86.79 199.55 87.49 C 194.27 87.73 189.07 88.70 183.88 89.65 C 155.18 94.86 126.71 101.99 99.62 112.89 C 85.57 118.65 71.72 125.38 59.76 134.84 C 54.39 139.31 48.81 144.35 46.84 151.32 C 46.80 151.44 46.73 151.68 46.69 151.81 C 43.73 159.53 49.59 166.83 55.42 171.23 C 57.89 160.85 65.72 152.98 73.94 146.72 C 89.03 135.54 106.45 127.96 124.13 121.88 C 160.25 109.63 198.18 103.49 236.11 100.41 C 247.03 99.36 258.01 99.36 268.96 98.61 C 274.79 98.40 280.64 98.30 286.48 98.50 L 287.12 99.77 L 286.59 100.40 C 283.84 103.31 281.14 106.27 278.68 109.44 C 278.61 109.52 278.47 109.68 278.40 109.75 C 272.74 115.57 267.70 121.94 262.26 127.95 C 258.87 132.34 252.70 130.15 247.96 130.74 C 213.45 132.31 178.75 136.20 145.54 146.09 L 145.11 146.21 C 132.91 149.63 121.08 154.32 109.78 160.02 C 101.87 163.97 94.41 168.96 88.17 175.25 C 84.55 178.93 81.56 183.70 81.50 189.02 C 81.41 191.99 83.11 194.56 84.55 197.02 L 84.71 197.29 C 85.57 199.01 87.07 200.27 88.71 201.23 C 89.13 201.51 89.96 202.09 90.37 202.38 C 90.55 202.52 90.91 202.80 91.09 202.94 C 92.69 198.80 94.32 194.57 97.24 191.16 C 104.40 182.48 114.44 176.91 124.41 172.06 C 147.68 161.45 172.92 156.09 198.08 152.18 C 214.95 149.77 231.94 148.34 248.96 147.53 C 251.89 147.54 255.05 146.90 257.80 148.17 C 258.19 149.48 256.90 150.35 256.27 151.33 C 252.15 156.02 247.86 160.57 244.12 165.57 L 244.00 165.71 C 239.67 169.51 236.82 174.94 232.11 178.18 C 210.59 179.93 189.05 182.44 168.00 187.46 C 155.11 190.52 142.16 194.17 130.54 200.71 C 127.60 202.33 124.82 204.34 122.77 207.03 C 118.66 212.02 120.05 219.23 123.42 224.21 C 129.15 232.48 138.47 237.23 147.44 241.18 C 147.65 242.92 147.10 244.34 145.03 243.57 C 128.51 239.94 112.12 233.24 99.48 221.74 C 95.77 217.66 92.59 213.01 91.13 207.63 C 80.69 202.77 70.30 197.17 62.31 188.70 C 58.65 185.20 56.60 180.49 55.24 175.69 C 42.54 169.19 28.77 162.66 20.71 150.30 C 18.59 146.58 17.87 142.03 19.22 137.92 C 21.72 130.50 26.94 124.37 32.44 118.97 C 37.88 114.55 43.49 110.35 48.98 106.01 L 49.76 105.45 C 62.90 97.89 76.23 90.55 90.40 85.07 C 123.67 71.68 158.73 63.29 194.01 57.28 Z" />
<path fill="#0170a9" opacity="1.00" d=" M 352.18 47.63 C 362.53 47.80 372.88 47.59 383.24 47.75 C 383.33 57.65 383.18 67.56 383.32 77.46 C 372.96 77.20 362.61 77.52 352.25 77.28 C 352.26 67.40 352.42 57.51 352.18 47.63 Z" />
<path fill="#0170a9" opacity="1.00" d=" M 421.66 47.69 C 444.44 47.75 467.22 47.69 490.01 47.69 C 502.10 47.82 514.39 47.77 526.20 50.74 C 532.80 52.23 539.01 54.96 545.24 57.53 L 545.98 57.96 C 551.65 61.70 557.14 65.70 562.19 70.25 C 562.29 70.35 562.49 70.55 562.59 70.65 C 565.23 73.84 567.83 77.06 570.52 80.22 C 570.56 80.27 570.64 80.39 570.68 80.44 C 580.73 95.99 586.01 114.21 587.40 132.58 C 588.97 156.42 586.55 181.48 574.88 202.75 C 568.40 215.01 558.24 224.99 546.43 232.13 L 546.04 232.35 C 533.75 238.80 519.90 242.18 506.04 242.41 C 477.89 242.39 449.74 242.38 421.59 242.41 C 421.55 230.61 422.34 218.83 422.06 207.02 C 422.06 162.67 422.05 118.32 422.06 73.97 C 422.25 65.20 421.36 56.46 421.66 47.69 M 455.63 75.55 C 455.59 121.87 455.59 168.20 455.62 214.53 C 465.74 214.58 475.87 214.54 485.99 214.55 C 500.45 215.07 515.58 213.37 528.37 206.14 C 536.51 201.26 543.12 193.81 546.95 185.11 C 550.87 176.29 552.16 166.61 553.16 157.09 C 553.37 145.72 553.95 134.21 551.79 122.97 C 549.96 109.82 544.40 96.51 533.75 88.12 C 524.14 80.35 511.74 77.39 499.69 76.18 C 485.03 75.07 470.32 75.68 455.63 75.55 Z" />
<path fill="#0170a9" opacity="1.00" d=" M 352.27 100.72 C 362.61 101.01 373.02 100.10 383.31 101.21 C 383.19 145.79 383.31 190.38 383.25 234.96 C 383.24 237.47 383.28 239.98 383.43 242.49 C 373.02 242.44 362.57 242.08 352.17 242.70 C 352.44 195.45 352.23 148.20 352.28 100.95 L 352.27 100.72 Z" />
</g>
</svg>
